<?xml version="1.0" encoding="UTF-8" standalone="no"?>
<svg
   xmlns:dc="http://purl.org/dc/elements/1.1/"
   xmlns:cc="http://creativecommons.org/ns#"
   xmlns:rdf="http://www.w3.org/1999/02/22-rdf-syntax-ns#"
   xmlns:svg="http://www.w3.org/2000/svg"
   xmlns="http://www.w3.org/2000/svg"
   xmlns:xlink="http://www.w3.org/1999/xlink"
   xmlns:sodipodi="http://sodipodi.sourceforge.net/DTD/sodipodi-0.dtd"
   xmlns:inkscape="http://www.inkscape.org/namespaces/inkscape"
   height="454.96399"
   version="1.1"
   viewBox="0 0 389.05301 454.96399"
   width="389.05301"
   xml:space="preserve"
   id="svg853"
   sodipodi:docname="iconfinder_Germany__flag__map__world___3197919.svg"
   inkscape:version="1.0.1 (c497b03c, 2020-09-10)"><metadata
     id="metadata859"><rdf:RDF><cc:Work
         rdf:about=""><dc:format>image/svg+xml</dc:format><dc:type
           rdf:resource="http://purl.org/dc/dcmitype/StillImage" /></cc:Work></rdf:RDF></metadata><defs
     id="defs857" /><sodipodi:namedview
     pagecolor="#ffffff"
     bordercolor="#666666"
     borderopacity="1"
     objecttolerance="10"
     gridtolerance="10"
     guidetolerance="10"
     inkscape:pageopacity="0"
     inkscape:pageshadow="2"
     inkscape:window-width="1680"
     inkscape:window-height="939"
     id="namedview855"
     showgrid="false"
     inkscape:zoom="1.390625"
     inkscape:cx="193.145"
     inkscape:cy="231.878"
     inkscape:window-x="0"
     inkscape:window-y="25"
     inkscape:window-maximized="0"
     inkscape:current-layer="svg853" /><g
     id="Germany__x2C_"
     transform="translate(-62.855,-24.122)"><g
       id="g849"><g
         id="g847"><defs
           id="defs834"><polygon
             id="SVGID_1_"
             points="439.469,232.61 430.992,213.458 434.65,205.52 430.6,195.783 430.6,188.688 423.859,180.012 425.59,170.7 411.029,155.351 411.029,148.895 424.236,142.23 425.59,126.778 420.469,106.03 412.088,106.456 406.307,101.593 398.695,102.537 390.203,95.979 392.037,87.088 386.641,79.047 377.1,80.739 365.334,69.2 357.234,67.827 354.049,62.854 349.807,65.181 339.592,66.131 329.947,72.694 326.48,69.2 331.301,64.439 332.934,65.603 336.496,61.9 346.045,58.094 333.902,56.82 329.947,58.941 328.789,63.595 319.439,68.355 319.053,72.587 301.791,75.343 295.338,84.126 293.793,90.792 283.957,91.64 280.971,86.454 272.582,85.712 268.34,87.617 256.482,84.126 264.771,78.515 270.461,79.366 276.535,72.059 276.345,64.227 272.774,62.113 265.348,67.827 262.749,71.112 250.983,62.745 247.521,57.668 242.986,60.417 240.673,65.5 233.342,70.683 230.548,62.854 223.125,60.839 220.619,55.444 225.242,51.003 230.26,40.417 220.907,39.354 212.039,29.829 203.747,31.209 198.636,28.776 181.472,24.122 169.136,24.754 169.713,26.761 168.937,34.381 175.403,38.613 180.312,39.042 179.642,45.817 189.863,55.234 181.379,58.303 173.664,58.303 173.76,66.451 182.148,62.854 182.148,73.861 190.54,79.047 183.112,84.656 183.112,91.427 189.479,95.237 200.85,95.979 215.413,111.117 234.791,119.159 214.541,115.239 199.697,99.047 189.863,102.965 182.436,99.047 175.016,100.423 169.329,109.63 171.257,117.25 171.35,130.695 175.592,139.478 165.471,127.839 166.147,117.25 159.492,111.536 155.15,113.122 155.15,119.896 159.492,127.839 154.77,132.812 147.054,123.603 147.054,113.122 136.74,105.821 130.665,108.57 109.842,114.076 108.109,123.288 112.348,131.432 122.665,133.124 124.782,142.018 123.921,141.595 123.629,143.603 120.928,146.99 120.255,152.176 116.494,160.324 116.301,169.426 110.319,174.3 100.489,169.958 96.436,179.061 97.788,185.087 109.262,184.665 113.988,189.007 111.386,194.718 109.938,204.778 103.764,209.116 108.974,217.793 102.219,221.393 90.368,218.853 78.019,221.921 72.143,231.126 66.164,238.644 68.869,251.977 65.879,267.533 62.021,277.691 63.085,278.008 60.092,284.68 67.228,299.074 66.937,304.793 72.527,313.572 67.228,326.16 70.31,326.16 81.303,339.924 83.421,349.98 88.339,354.318 87.67,369.029 96.436,375.693 96.436,381.412 104.539,388.076 112.348,385.428 120.444,385.428 126.615,387.762 135.007,385.008 145.997,389.979 154.77,389.979 164.022,396.123 153.42,407.023 148.31,420.889 148.31,427.979 142.04,433.904 137.221,449.994 137.893,463.428 145.997,468.506 150.431,477.506 150.139,477.506 157.854,479.73 166.24,475.178 177.813,479.098 181.187,473.381 180.027,467.773 189.568,464.381 192.753,473.381 198.636,475.178 203.365,470.627 209.626,471.053 222.544,480.684 227.175,483.541 229.776,483.541 235.075,481 243.467,477.932 249.927,484.912 261.686,487.879 264.674,484.068 263.617,477.932 276.152,476.133 288.975,478.145 295.818,482.482 303.814,480.684 311.146,482.695 319.342,481.104 334.094,471.479 341.611,470.525 352.51,473.381 362.82,470.525 373.24,476.449 377.965,473.168 376.805,464.381 365.141,458.67 365.141,452.738 377.676,436.973 388.467,431.68 393.965,422.475 401.387,422.475 400.809,413.16 402.545,404.586 383.648,383.004 374.684,376.963 358.58,366.063 349.422,361.094 347.006,354.105 347.59,342.998 337.85,327.855 325.514,320.449 324.943,313.572 329.076,310.504 333.523,314.1 341.227,317.91 357.715,302.773 365.91,302.039 374.875,291.77 385.096,291.344 390.203,283.836 405.627,283.41 412.383,285.105 420.092,280.451 420.092,272.082 434.65,275.365 440.621,271.445 447.377,274.732 451.908,267.854 451.137,243.088 445.545,235.998 " /></defs><clipPath
           id="SVGID_2_"><use
             style="overflow:visible"
             xlink:href="#SVGID_1_"
             id="use836"
             x="0"
             y="0"
             width="100%"
             height="100%" /></clipPath><g
           clip-path="url(#SVGID_2_)"
           id="g845"><path
             d="M 62.855,175.721 H 477.689 V 68.953 c 0,-24.824 -18.451,-45.074 -41.021,-45.074 H 103.884 c -22.55,0 -41.029,20.25 -41.029,45.074 z"
             style="clip-rule:evenodd;fill:#010101;fill-rule:evenodd"
             id="path839" /><rect
             height="151.69501"
             style="clip-rule:evenodd;fill:#e01f26;fill-rule:evenodd"
             width="414.83401"
             x="62.855"
             y="175.72099"
             id="rect841" /><path
             d="M 477.689,327.416 H 62.855 v 106.59 c 0,24.787 18.479,45.08 41.029,45.08 h 332.784 c 22.57,0 41.021,-20.293 41.021,-45.08 z"
             style="clip-rule:evenodd;fill:#f6d929;fill-rule:evenodd"
             id="path843" /></g></g></g></g><g
     id="Layer_1"
     transform="translate(-62.855,-24.122)" /></svg>
