<?xml version="1.0" encoding="UTF-8" standalone="no"?>
<svg
   xmlns:dc="http://purl.org/dc/elements/1.1/"
   xmlns:cc="http://creativecommons.org/ns#"
   xmlns:rdf="http://www.w3.org/1999/02/22-rdf-syntax-ns#"
   xmlns:svg="http://www.w3.org/2000/svg"
   xmlns="http://www.w3.org/2000/svg"
   xmlns:sodipodi="http://sodipodi.sourceforge.net/DTD/sodipodi-0.dtd"
   xmlns:inkscape="http://www.inkscape.org/namespaces/inkscape"
   enable-background="new 0 0 80 79.999"
   height="77.209999"
   id="Layer_1"
   version="1.1"
   viewBox="0 0 69.050209 77.209999"
   width="69.050209"
   xml:space="preserve"
   sodipodi:docname="iconfinder_School_education-03_226414.svg"
   inkscape:version="1.0.1 (c497b03c, 2020-09-10)"><metadata
     id="metadata840"><rdf:RDF><cc:Work
         rdf:about=""><dc:format>image/svg+xml</dc:format><dc:type
           rdf:resource="http://purl.org/dc/dcmitype/StillImage" /></cc:Work></rdf:RDF></metadata><defs
     id="defs838" /><sodipodi:namedview
     pagecolor="#ffffff"
     bordercolor="#666666"
     borderopacity="1"
     objecttolerance="10"
     gridtolerance="10"
     guidetolerance="10"
     inkscape:pageopacity="0"
     inkscape:pageshadow="2"
     inkscape:window-width="1680"
     inkscape:window-height="939"
     id="namedview836"
     showgrid="false"
     inkscape:zoom="8.9"
     inkscape:cx="34.526067"
     inkscape:cy="38.6045"
     inkscape:window-x="0"
     inkscape:window-y="25"
     inkscape:window-maximized="0"
     inkscape:current-layer="Layer_1" /><path
     d="m 58.283067,44.905 c 3.948,4.538 5.482,8.265 4.479,10.002 -0.607,1.053 -2.641,1.681 -5.439,1.681 0,0 0,0 -0.001,0 -1.654,0 -3.52,-0.211 -5.531,-0.603 -0.384,2.044 -0.832,4 -1.345,5.85 2.476,0.492 4.791,0.753 6.876,0.753 0.001,0 0.001,0 0.001,0 6.556,0 9.401,-2.545 10.636,-4.681 2.71,-4.695 0.152,-10.871 -5.269,-17.065 -1.362,1.374 -2.837,2.732 -4.407,4.063 z m -4.401,-12.277 c -3.506,-2.761 -7.401,-5.386 -11.448,-7.723 -4.142,-2.392 -8.328,-4.423 -12.369,-6.035 -0.492,1.846 -0.915,3.853 -1.263,5.974 3.486,1.443 7.088,3.211 10.632,5.257 3.745,2.162 7.057,4.393 9.929,6.595 1.736,-1.42 3.232,-2.782 4.519,-4.068 z m -43.117,-0.326 c -3.9470005,-4.537 -5.4790005,-8.264 -4.4780005,-10 0.607,-1.053 2.642,-1.681 5.4400005,-1.681 1.65,0 3.512,0.211 5.518,0.601 0.382,-2.046 0.831,-4.001 1.342,-5.852 -2.469,-0.489 -4.779,-0.749 -6.859,-0.749 -6.5570005,0 -9.4020005,2.545 -10.6370005,4.681 -2.71,4.695 -0.15299995,10.87 5.268,17.064 1.361,-1.375 2.836,-2.733 4.4060005,-4.064 z m 31.988,23.267 c -2.009,9.86 -5.528,15.64 -8.228,15.64 -2.014,0 -4.484,-3.216 -6.444,-8.942 -1.936,0.682 -3.854,1.273 -5.733,1.758 2.652,7.843 6.733,13.185 12.178,13.185 8.035,0 13.104,-11.629 14.986,-25.775 -1.823,1.215 -3.689,2.378 -5.577,3.468 -0.392,0.224 -0.787,0.445 -1.182,0.666 z m 25.205,-36.269 c -1.233,-2.134 -4.079,-4.679 -10.636,-4.679 -5.281,0 -12.022,1.654 -19.174,4.595 1.938,0.959 3.87,1.985 5.786,3.092 0.4,0.231 0.789,0.474 1.185,0.71 4.609,-1.54 8.836,-2.396 12.203,-2.396 2.799,0 4.833,0.628 5.439,1.679 2.001,3.468 -6.092,14.855 -23.327,24.809 -10.128,5.847 -20.743,9.479 -27.703,9.479 h -0.002 c -2.8000005,0 -4.8330005,-0.629 -5.4400005,-1.681 -1.35,-2.338 1.901,-8.283 9.4480005,-14.96 -0.007,-0.449 -0.03,-0.893 -0.03,-1.343 0,-2.19 0.067,-4.382 0.199,-6.552 -11.3020005,8.702 -18.8280005,18.899 -14.8140005,25.854 1.232,2.135 4.079,4.68 10.6360005,4.681 0,0 0.001,0 0.002,0 8.073,0 19.552,-3.845 30.704,-10.284 16.613,-9.593 30.714,-24.01 25.524,-33.004 z m -42.509,31.17 c -0.469,-3.58 -0.742,-7.553 -0.742,-11.865 0,-19.903 5.815,-32.604 9.818,-32.604 2.014,0 4.485,3.217 6.445,8.945 1.936,-0.682 3.854,-1.273 5.733,-1.759 C 44.050067,5.343 39.969067,0 34.525067,0 c -10.385,0 -15.818,19.421 -15.818,38.605 0,4.653 0.322,9.317 0.955,13.718 1.762,-0.465 3.692,-1.069 5.787,-1.853 z m 8.923,-17.866 c -3.313,0 -6,2.687 -6,6 0,3.313 2.687,6 6,6 3.313,0 6,-2.687 6,-6 0,-3.313 -2.687,-6 -6,-6 z"
     fill="#333f4f"
     id="path833" /></svg>
